<svg xml:space="preserve" viewBox="0 0 25 25" height="25px" width="25px" y="0px" x="0px" xmlns:xlink="http://www.w3.org/1999/xlink" xmlns="http://www.w3.org/2000/svg" id="Icons" version="1.1">
<g>
	<circle r="12.5" cy="12.5" cx="12.5" fill="#3C5B9B"></circle>
	<g>
		<path d="M10.417,20.312h3.125c0,0,0-4.313,0-7.812h2.319l0.284-3.125h-2.483v-1.25c0-0.608,0.406-0.75,0.69-0.75
			c0.285,0,1.754,0,1.754,0V4.697l-2.414-0.01c-2.68,0-3.288,1.997-3.288,3.275v1.412h-1.55V12.5h1.562
			C10.417,16.041,10.417,20.312,10.417,20.312z" fill="#FFFFFF"></path>
	</g>
	<circle r="12.5" cy="12.5" cx="12.5" fill="#3C5B9B"></circle>
	<g>
		<path d="M10.417,20.312h3.125c0,0,0-4.313,0-7.812h2.319l0.284-3.125h-2.483v-1.25c0-0.608,0.406-0.75,0.69-0.75
			c0.285,0,1.754,0,1.754,0V4.697l-2.414-0.01c-2.68,0-3.288,1.997-3.288,3.275v1.412h-1.55V12.5h1.562
			C10.417,16.041,10.417,20.312,10.417,20.312z" fill="#FFFFFF"></path>
	</g>
	<circle r="12.5" cy="12.5" cx="12.5" fill="#3C5B9B"></circle>
	<g>
		<path d="M10.417,20.312h3.125c0,0,0-4.313,0-7.812h2.319l0.284-3.125h-2.483v-1.25c0-0.608,0.406-0.75,0.69-0.75
			c0.285,0,1.754,0,1.754,0V4.697l-2.414-0.01c-2.68,0-3.288,1.997-3.288,3.275v1.412h-1.55V12.5h1.562
			C10.417,16.041,10.417,20.312,10.417,20.312z" fill="#FFFFFF"></path>
	</g>
</g>
</svg>
